<?xml version="1.0" encoding="utf-8"?>
<!-- Generator: Adobe Illustrator 24.1.2, SVG Export Plug-In . SVG Version: 6.00 Build 0)  -->
<svg version="1.1" xmlns="http://www.w3.org/2000/svg" xmlns:xlink="http://www.w3.org/1999/xlink" x="0px" y="0px"
	 viewBox="0 0 612 792" style="enable-background:new 0 0 612 792;" xml:space="preserve">
<style type="text/css">
	.st0{fill:#393939;}
	.st1{fill:#3A3A3A;}
	.st2{fill:#7D7D7D;}
	.st3{fill:#F0F0F0;}
	.st4{fill:#424242;}
	.st5{fill:#E3E3E3;}
	.st6{fill:#FDFDFD;}
	.st7{fill:#FBFBFB;}
</style>
<g id="Layer_1">
</g>
<g id="Layer_1_copy">
	<path class="st0" d="M252,330.03c10.89-11.93,22.05-23.57,34.62-33.81c19.8-16.14,42.56-27.41,65.16-38.65
		c16.26-8.08,30.6-18.03,43-31.08c4.18-4.39,8.49-8.51,14.76-10.08c3.03-0.76,4.71,0.3,6.52,2.2c1.81,1.9,1.55,3.6,0.99,6.21
		c-1.68,7.82-7.72,11.98-12.9,16.73c-11.92,10.94-21.12,23.62-28.83,37.92c-10.64,19.74-21.37,39.53-35.34,57.31
		c-13.9,17.68-30.14,32.85-48.08,46.3c-1.39,1.05-3.3,1.65-4.02,3.93c6.83-0.41,12.78-2.88,18.46-6.02
		c2.93-1.62,4.06-1.41,3.96,2.27c-0.19,6.66-0.17,13.3-1.92,19.82c-1.8,6.67-5.67,11.31-12.47,12.97
		c-10.62,2.59-19.62,7.33-25.53,17.53c-0.67-6.14-1.36-12.29-2-18.44c-0.76-7.29-1.41-14.59-2.27-21.86
		c-0.34-2.85,0.43-4.38,3.21-5.74c11.62-5.7,24.75-20.11,28.5-31.36c-5.66,4.8-10.65,9.05-15.66,13.27
		c-6.63,5.6-13.59,10.72-21.08,15.13c-2.47,1.46-3.9,1.64-5.4-1.3c-2.23-4.37-5.69-7.86-10.01-10.21c-2.77-1.5-2.92-2.88-1.34-5.43
		c6.16-9.98,13.9-18.69,21.77-27.3c2.24-2.45,4.42-4.93,7.32-8.17c-6.02,0.91-9.79,4.12-13.53,7c-7.41,5.7-14.32,12-18.56,20.6
		c-0.83,1.69-1.79,2.72-3.82,2.37c-1.14-0.2-2.32-0.2-3.48-0.35c-12.61-1.7-25.22-3.41-38.2-5.67c11.35-4.79,14.98-14.72,18.06-25.1
		c2.44-8.22,8.5-11.95,16.59-13c5.82-0.76,11.63-0.36,17.46-0.07c3.3,0.17,3.15,1.33,1.67,3.62c-1.07,1.66-1.78,3.54-2.65,5.33
		c-1.17,2.03,0.16,4.16-0.39,6.91C248.15,331.58,250.3,331.19,252,330.03z"/>
	<path class="st1" d="M486.96,472.92c4.36,2.14,6.13,5.86,6.42,10.5c0.4,6.41-0.49,12.63-2.94,18.57
		c-4.49,10.89-13.03,14.73-24.27,10.83c-1.09,5.05-2.17,10.08-3.27,15.11c-0.69,3.18-9.17,7.53-11.99,6.13
		c-1.55-0.77-0.59-2.02-0.39-3.04c1.23-6.15,2.51-12.29,3.78-18.45c-0.86-0.16-1.24-0.37-1.45-0.25c-4.67,2.59-9.53,3.72-14.04,0.15
		c-4.35-3.46-3.14-8.37-2.31-12.99c0.86-4.74,1.88-9.45,2.62-14.21c0.27-1.76,0.33-3.89-1.89-4.66c-2.32-0.81-3.81,0.77-5,2.4
		c-1.91,2.62-2.48,5.78-3.15,8.87c-1.37,6.34-2.53,12.73-4.08,19.03c-1.53,6.21-6.65,2.76-9.98,2.9c-3.74,0.16-1.59-3.11-1.25-4.83
		c1.48-7.68,3.18-15.31,4.76-22.97c0.45-2.16,0.89-4.67-1.79-5.53c-2.45-0.79-3.97,1.19-5.16,3.05c-2.2,3.47-2.5,7.55-3.43,11.41
		c-0.97,4.04-1.65,8.15-2.53,12.22c-1.48,6.9-3.99,8.37-11.04,6.92c-3.26-0.67-1.64-2.86-1.37-4.26c1.33-6.99,2.9-13.93,4.43-21.1
		c-4.83-0.33-7.03,1.44-7.55,5.95c-0.6,5.22-2.8,9.92-6.34,13.87c-7.8,8.68-19.34,7.72-25.57-2.37
		c-6.67,6.93-14.72,10.11-24.34,8.95c-6.98-0.84-11.53-4.42-12.77-11.36c-2.72-15.31,0.43-29.53,9.67-42.06
		c5.38-7.29,13.01-10.1,22.05-8.71c7.07,1.09,10.77,6.43,9.32,13.3c-0.63,2.99-2.29,4.83-5.48,4.68c-2.6-0.12-4.91-0.48-2.61-4.1
		c1.94-3.06,3.4-6.85-0.24-9.39c-3.71-2.59-7.18-0.33-9.49,2.8c-8.84,11.99-11.44,25.68-9.94,40.19c0.43,4.2,3.52,6.56,7.93,7.01
		c8.73,0.89,15.04-3.75,16.65-12.25c0.43-2.27,1.09-4.53,1.9-6.7c3.6-9.73,9.97-16,20.92-16.39c1.54,0.66,2.78-1.33,4.33-0.5
		c2.75,2.07,5.6,3.88,7.01,7.43c1,2.52,3.39,1.96,3.8-0.34c1.46-8.07,7.04-7.86,13.16-7.31c3.44,0.31,6.97,0.76,10.31-0.78
		c3.56-0.21,7.01,0.06,9.61,2.89c1.11,1.21,1.97,0.79,2.95,0c3.9-3.15,8.41-2.96,12.99-2.35c6.61,3.76,8.34,7.45,7.06,15.04
		c-0.66,3.91-1.79,7.73-2.42,11.65c-0.2,1.24-0.63,2.95,1,3.44c1.62,0.48,2.22-1.14,2.72-2.32c1.62-3.84,2.15-7.97,3.01-12.01
		c0.97-4.52,1.7-9.1,2.86-13.59c1.38-4.63,4.62-6.18,9.11-5.27c1.53,0.31,3.04-0.1,4.52,0.28c2.85,0.5,4.67,4.61,8.32,2.4
		C483.92,471.03,485.94,470.83,486.96,472.92z"/>
	<path class="st2" d="M296.73,426.63c11.15-2.87,18.1-9.2,21.22-19.43c0.76-2.5,2.85-2.54,4.71-3.01
		c34.83-8.77,55.93-30.77,62.66-65.99c2.63-13.76,1.19-27.55-3.98-40.73c-1.13-2.87-1.15-5.19,0.49-7.94
		c2.99-4.99,5.6-10.21,8.24-15.4c1.65-3.25,2.9-2.88,4.57,0.02c7.17,12.43,11.64,25.77,13.16,40.01
		c6.64,62.4-42.45,115.42-105.23,113.73C300.95,427.87,299.25,428.2,296.73,426.63z"/>
	<path class="st2" d="M203.87,325.64c-0.23-17.68,3.94-33.06,11.47-47.64c26.54-51.41,92.29-70.36,142.08-40.95
		c1.4,0.82,3.68,1.32,3.73,2.96c0.07,2.11-2.51,2.25-4,3.13c-10.3,6.1-20.75,11.21-32.71,4.09c-42.06-9.59-83.28,14.55-95.56,56.1
		c-1.02,3.44-2.59,5.15-6.18,6.02C215.41,311.13,212.94,313.56,203.87,325.64z"/>
	<path class="st1" d="M271.33,505.59c-4.36,4.31-9.02,8.02-15.3,8.79c-5.36,0.65-10.46,0.18-13.83-4.7
		c-1.44-2.09-2.21-1.16-3.3,0.07c-1.58,1.77-3.49,3.11-5.7,3.95c-5.92,2.26-9.37,0.89-13.59-5.33c-9.23,9.82-19.04,7.45-22.51-2.32
		c-1.64-0.3-2.16,1.24-3.07,2.02c-2.29,1.97-4.71,3.73-7.52,4.85c-5.67,2.24-11.5,2.96-16.69-0.81c-4.98-3.62-4.69-9.18-4.01-14.6
		c0.9-7.26,3.26-13.92,8.37-19.36c4.02-4.27,9.04-6.18,14.85-5.66c5.72,0.51,8.36,3.87,7.47,9.52c-1.31,8.3-6.95,12.77-14.51,14.67
		c-3.6,0.9-4.62,2.36-4.27,5.75c0.38,3.68,2.36,5.28,5.91,5.34c6.58,0.12,12.53-4.74,13.67-11.14c0.97-5.45,2.67-10.64,5.86-15.25
		c5.39-7.78,11.39-9.53,20.6-7.17c2.47,0.63,5.5-1.29,8.54-1.29c3.97,0,5.31,0.79,4.19,5.1c-1.89,7.23-3.14,14.63-4.66,21.96
		c-0.56,2.73-1.9,6.22,2.21,6.81c4.07,0.59,5.77-2.48,6.08-6.27c0.55-6.73,2.19-13.13,5.93-18.84c4.64-7.09,12-10.5,19.13-8.95
		c4.79,1.04,7,4.52,5.87,9.27c-0.56,2.37-1.88,4.02-4.49,3.72c-3.04-0.34-1.61-2.61-1.59-4.26c0.01-1.63,0.47-3.6-1.51-4.35
		c-1.85-0.7-3.22,0.61-4.2,1.98c-5.02,7.03-7.11,14.98-6.81,23.51c0.14,3.92,2.86,5.32,6.57,5.14c6.58-0.32,13.16-5.79,14.59-12.23
		c1.08-4.87,2.15-9.74,3.14-14.63c0.29-1.42,1.07-3.12-0.22-4.27c-1.95-1.73-1.31-2.56,0.59-3.64c2.95-1.67,2.01-5,2.85-7.55
		c0.98-2.95,9.37-6.58,11.96-4.93c0.9,0.57,0.61,1.41,0.44,2.22c-0.5,2.44-0.94,4.9-1.48,7.33c-0.36,1.61-0.64,3.03,1.76,3.02
		c0.98,0,2.17,0,2.08,1.46c-0.08,1.2-1.02,1.76-2.09,1.69c-3.34-0.2-3.55,2.18-4.04,4.53c-1.34,6.51-2.84,13-4.16,19.52
		c-0.44,2.18-1.55,4.88,1.46,6.07c2.71,1.07,4.64-0.73,6.55-2.5c1.5-1.39,1.52-5.75,4.49-3.77c1.69,1.13-0.93,4.02-1.97,5.96
		c-0.7,1.3-1.69,2.49-2.71,3.56C284.59,517.6,275.84,516.02,271.33,505.59z"/>
	<path class="st1" d="M136.22,454.05c6.05-1.36,12.17-2.3,18.23-0.38c11.54,3.65,14.21,14.14,5.74,22.79
		c-2.07,2.12-3.56,3.21-0.3,5.77c2.67,2.09,2.38,5.74,1.76,8.9c-0.84,4.24-1.88,8.45-2.99,12.63c-0.56,2.14-1.03,4.34-0.46,6.4
		c0.69,2.51,2.63,4.74-2.21,5.14c-5.99,0.5-8.79-0.56-9.22-4.75c-0.35-3.39,0.83-6.58,1.63-9.8c0.96-3.87,2.34-7.67,2.48-11.69
		c0.11-3.05-0.65-5.62-4.4-6.09c-3.91-0.49-3.71,2.61-4.21,4.83c-1.69,7.46-3.16,14.98-4.81,22.45c-0.33,1.47,0,3.7-2.43,3.73
		c-3.14,0.04-6.39,0.79-9.36-0.48c-1.05-0.45-0.12-2.11,0.11-3.2c2.44-12.06,4.9-24.12,7.36-36.17c0.88-2.92-1.46-5.54-0.48-8.67
		c1.52-4.89,11.41-8.86,15.49-5.79c1.66,1.25,1.7,2.96,1.56,4.92c-0.21,2.85-1.78,5.67-0.65,8.8c3.76-2.63,5.26-6.33,4.06-9.87
		c-1.26-3.73-4.28-5.02-7.85-4.82c-5.27,0.29-10.42,1.03-13.4,6.38c-1.24,2.21-3.44,3.55-5.5,4.95c-0.85,2.38-1.06,4.82-1.12,7.34
		c-0.03,1.43,1.99,3.48-0.47,4.25c-1.72,0.54-3.61-0.47-4.95-1.79c-0.8-0.79-1.3-1.9-1.93-2.86c-0.45-2.43-0.26-4.98-1.26-7.31
		c-0.03-1.07,0.05-2.11,0.64-3.05c1.7-3.04,4.25-5.34,6.74-7.68c1.49-1.19,3.06-2.29,4.63-3.38
		C130.92,453.9,133.77,455.02,136.22,454.05z"/>
	<path class="st2" d="M252.3,394.53c-1.21,6.66-4.27,11.95-9.36,15.76c-11.54,8.64-24.99,12.91-38.76,16.34
		c-2.18,0.54-3.23-0.14-2.55-2.56c4.02-14.31,8.44-28.72,18.46-39.91c8.47-9.46,15.02-10.48,24.43-1.28
		C248,386.28,250.72,390.15,252.3,394.53z"/>
	<path class="st3" d="M126.33,470c3.06-9.04,13.12-15.2,22.3-13.66c5.76,0.96,8.42,4.39,7.67,10.19c-0.68,5.25-3.06,9.53-7.97,11.92
		c-2.34,1.14-4.34,1.23-3.45-2.57c0.95-4.04,1.54-8.17,2.47-12.22c0.53-2.32-0.25-2.87-2.48-2.89c-7.09-0.07-8.82,1.21-10.37,8.08
		c-0.4,1.77-0.93,3.51-1.4,5.26C132.11,470.67,129.38,470.07,126.33,470z"/>
	<path class="st4" d="M304.39,495.96c-1.49,0-2.98,0.12-4.45-0.04c-1.25-0.13-3.39,0.81-3.11-1.79c0.2-1.86-0.12-4.45,2.63-4.63
		c4.11-0.27,8.25-0.12,12.37-0.1c1.32,0.01,2.43,0.58,1.88,2.1c-0.6,1.66,0.13,4.33-2.87,4.41c-2.14,0.06-4.29,0.01-6.44,0.01
		C304.39,495.94,304.39,495.95,304.39,495.96z"/>
	<path class="st5" d="M252,330.03c-2.65,3.53-5.3,7.07-7.94,10.6c-0.41-0.15-0.82-0.3-1.24-0.45c0.36-4.66,1.66-9.09,4.14-13.24
		C247.37,330.04,249.69,330.03,252,330.03z"/>
	<path class="st6" d="M307.16,335.23c-7.41-0.04-13.21-5.95-13.13-13.38c0.08-7.27,6.15-13.07,13.58-12.97
		c7.4,0.09,13.32,6.12,13.17,13.41C320.62,329.56,314.62,335.27,307.16,335.23z"/>
	<path class="st6" d="M337.53,305.19c-5.64-0.02-10.22-4.5-10.29-10.05c-0.07-5.71,4.74-10.35,10.59-10.23
		c5.61,0.11,10.11,4.74,10.02,10.29C347.75,300.78,343.17,305.22,337.53,305.19z"/>
	<path class="st6" d="M370.42,500.33c0.45-7.04,2.03-13.75,6.17-19.61c1.44-2.04,3.38-4.35,6.12-2.68c2.6,1.59,1.45,3.9-0.04,5.95
		c-0.93,1.28-0.87,2.81-0.34,4.28c1.87,5.22-0.49,13.9-4.67,17.34c-1.54,1.26-3.25,1.91-5.04,0.96
		C370.11,505.23,370.78,502.57,370.42,500.33z"/>
	<path class="st6" d="M482.14,486.69c-0.1,4.87-1,9.57-3.03,14.02c-1.12,2.47-2.62,4.69-5.12,5.91c-1.67,0.82-3.57,1.22-5.21-0.02
		c-1.47-1.12-0.76-2.75-0.47-4.17c1.21-5.85,2.46-11.69,3.7-17.54c0.07-0.32,0.1-0.66,0.21-0.97c1.1-3.05,2.91-5.34,6.5-5.03
		C481.44,479.14,482.27,481.25,482.14,486.69z"/>
	<path class="st6" d="M209.01,499.4c0.75-6.37,2.01-12.55,5.84-17.84c1.7-2.35,3.9-4.63,7.09-3.27c3.25,1.38,1.62,4.24,1.15,6.57
		c-0.88,4.4-1.84,8.78-2.8,13.17c-0.25,1.13-0.47,2.3-0.95,3.34c-1.39,3-3.3,5.89-7.05,5.05
		C208.72,505.61,209.3,502.14,209.01,499.4z"/>
	<path class="st7" d="M190.16,480.51c0,4.86-3.6,10.28-7.83,12.01c-0.93,0.38-1.97,0.88-2.81,0.24c-0.9-0.69-0.52-1.85-0.24-2.78
		c1.26-4.13,2.7-8.19,5.71-11.45c1.05-1.13,2.29-2.07,3.92-1.34C190.45,477.88,190.05,479.41,190.16,480.51z"/>
</g>
</svg>
